<mxfile host="app.diagrams.net" modified="2023-12-08T19:49:28.386Z" agent="Mozilla/5.0 (Windows NT 10.0; Win64; x64) AppleWebKit/537.36 (KHTML, like Gecko) Chrome/119.0.0.0 Safari/537.36" etag="-D04-tzhwC4qJnTnTx1L" version="22.1.7" type="github">
  <diagram name="Page-1" id="lAjYZCsE0gxsNwcM8b5c">
    <mxGraphModel dx="1218" dy="578" grid="1" gridSize="10" guides="1" tooltips="1" connect="1" arrows="1" fold="1" page="1" pageScale="1" pageWidth="850" pageHeight="1100" math="0" shadow="0">
      <root>
        <mxCell id="0" />
        <mxCell id="1" parent="0" />
        <mxCell id="KvpCrbE6hY3rd7WmZzpO-4" value="" style="shape=umlLifeline;perimeter=lifelinePerimeter;whiteSpace=wrap;html=1;container=1;dropTarget=0;collapsible=0;recursiveResize=0;outlineConnect=0;portConstraint=eastwest;newEdgeStyle={&quot;curved&quot;:0,&quot;rounded&quot;:0};participant=umlActor;size=80;" vertex="1" parent="1">
          <mxGeometry x="60" y="40" width="40" height="560" as="geometry" />
        </mxCell>
        <mxCell id="KvpCrbE6hY3rd7WmZzpO-10" value="" style="html=1;points=[[0,0,0,0,5],[0,1,0,0,-5],[1,0,0,0,5],[1,1,0,0,-5]];perimeter=orthogonalPerimeter;outlineConnect=0;targetShapes=umlLifeline;portConstraint=eastwest;newEdgeStyle={&quot;curved&quot;:0,&quot;rounded&quot;:0};" vertex="1" parent="KvpCrbE6hY3rd7WmZzpO-4">
          <mxGeometry x="15" y="80" width="10" height="480" as="geometry" />
        </mxCell>
        <mxCell id="KvpCrbE6hY3rd7WmZzpO-5" value="UI" style="shape=umlLifeline;perimeter=lifelinePerimeter;whiteSpace=wrap;html=1;container=1;dropTarget=0;collapsible=0;recursiveResize=0;outlineConnect=0;portConstraint=eastwest;newEdgeStyle={&quot;curved&quot;:0,&quot;rounded&quot;:0};size=80;" vertex="1" parent="1">
          <mxGeometry x="200" y="40" width="80" height="560" as="geometry" />
        </mxCell>
        <mxCell id="KvpCrbE6hY3rd7WmZzpO-11" value="" style="html=1;points=[[0,0,0,0,5],[0,1,0,0,-5],[1,0,0,0,5],[1,1,0,0,-5]];perimeter=orthogonalPerimeter;outlineConnect=0;targetShapes=umlLifeline;portConstraint=eastwest;newEdgeStyle={&quot;curved&quot;:0,&quot;rounded&quot;:0};" vertex="1" parent="KvpCrbE6hY3rd7WmZzpO-5">
          <mxGeometry x="35" y="120" width="10" height="440" as="geometry" />
        </mxCell>
        <mxCell id="KvpCrbE6hY3rd7WmZzpO-6" value="User adds an item to &lt;br&gt;a character&#39;s inventory" style="html=1;verticalAlign=bottom;startArrow=oval;startFill=1;endArrow=block;startSize=8;curved=0;rounded=0;" edge="1" parent="1" source="KvpCrbE6hY3rd7WmZzpO-4" target="KvpCrbE6hY3rd7WmZzpO-5">
          <mxGeometry x="0.0052" width="60" relative="1" as="geometry">
            <mxPoint x="410" y="330" as="sourcePoint" />
            <mxPoint x="470" y="330" as="targetPoint" />
            <Array as="points">
              <mxPoint x="170" y="160" />
            </Array>
            <mxPoint as="offset" />
          </mxGeometry>
        </mxCell>
        <mxCell id="KvpCrbE6hY3rd7WmZzpO-8" value="Engine API" style="shape=umlLifeline;perimeter=lifelinePerimeter;whiteSpace=wrap;html=1;container=1;dropTarget=0;collapsible=0;recursiveResize=0;outlineConnect=0;portConstraint=eastwest;newEdgeStyle={&quot;curved&quot;:0,&quot;rounded&quot;:0};size=80;" vertex="1" parent="1">
          <mxGeometry x="400" y="40" width="80" height="560" as="geometry" />
        </mxCell>
        <mxCell id="KvpCrbE6hY3rd7WmZzpO-14" value="" style="html=1;points=[[0,0,0,0,5],[0,1,0,0,-5],[1,0,0,0,5],[1,1,0,0,-5]];perimeter=orthogonalPerimeter;outlineConnect=0;targetShapes=umlLifeline;portConstraint=eastwest;newEdgeStyle={&quot;curved&quot;:0,&quot;rounded&quot;:0};" vertex="1" parent="KvpCrbE6hY3rd7WmZzpO-8">
          <mxGeometry x="35" y="160" width="10" height="360" as="geometry" />
        </mxCell>
        <mxCell id="KvpCrbE6hY3rd7WmZzpO-9" value="UI sends a request to the Engine API&lt;br&gt;with the Character&#39;s UUID and info&lt;br&gt;on the item" style="html=1;verticalAlign=bottom;startArrow=oval;startFill=1;endArrow=block;startSize=8;curved=0;rounded=0;" edge="1" parent="1" source="KvpCrbE6hY3rd7WmZzpO-5" target="KvpCrbE6hY3rd7WmZzpO-8">
          <mxGeometry width="60" relative="1" as="geometry">
            <mxPoint x="450" y="280" as="sourcePoint" />
            <mxPoint x="510" y="280" as="targetPoint" />
            <Array as="points">
              <mxPoint x="360" y="200" />
            </Array>
          </mxGeometry>
        </mxCell>
        <mxCell id="KvpCrbE6hY3rd7WmZzpO-12" value="Inventory API" style="shape=umlLifeline;perimeter=lifelinePerimeter;whiteSpace=wrap;html=1;container=1;dropTarget=0;collapsible=0;recursiveResize=0;outlineConnect=0;portConstraint=eastwest;newEdgeStyle={&quot;curved&quot;:0,&quot;rounded&quot;:0};size=80;" vertex="1" parent="1">
          <mxGeometry x="600" y="40" width="80" height="560" as="geometry" />
        </mxCell>
        <mxCell id="KvpCrbE6hY3rd7WmZzpO-16" value="" style="html=1;points=[[0,0,0,0,5],[0,1,0,0,-5],[1,0,0,0,5],[1,1,0,0,-5]];perimeter=orthogonalPerimeter;outlineConnect=0;targetShapes=umlLifeline;portConstraint=eastwest;newEdgeStyle={&quot;curved&quot;:0,&quot;rounded&quot;:0};" vertex="1" parent="KvpCrbE6hY3rd7WmZzpO-12">
          <mxGeometry x="35" y="200" width="10" height="120" as="geometry" />
        </mxCell>
        <mxCell id="KvpCrbE6hY3rd7WmZzpO-13" value="Engine API sends a request to the&lt;br&gt;Inventory API with the Character&#39;s&lt;br&gt;UUID and info on the item" style="html=1;verticalAlign=bottom;startArrow=oval;startFill=1;endArrow=block;startSize=8;curved=0;rounded=0;" edge="1" parent="1" source="KvpCrbE6hY3rd7WmZzpO-8" target="KvpCrbE6hY3rd7WmZzpO-12">
          <mxGeometry width="60" relative="1" as="geometry">
            <mxPoint x="370" y="280" as="sourcePoint" />
            <mxPoint x="430" y="280" as="targetPoint" />
            <Array as="points">
              <mxPoint x="540" y="240" />
            </Array>
          </mxGeometry>
        </mxCell>
        <mxCell id="KvpCrbE6hY3rd7WmZzpO-15" value="Database" style="shape=umlLifeline;perimeter=lifelinePerimeter;whiteSpace=wrap;html=1;container=1;dropTarget=0;collapsible=0;recursiveResize=0;outlineConnect=0;portConstraint=eastwest;newEdgeStyle={&quot;curved&quot;:0,&quot;rounded&quot;:0};size=80;" vertex="1" parent="1">
          <mxGeometry x="1000" y="40" width="80" height="560" as="geometry" />
        </mxCell>
        <mxCell id="KvpCrbE6hY3rd7WmZzpO-22" value="" style="html=1;points=[[0,0,0,0,5],[0,1,0,0,-5],[1,0,0,0,5],[1,1,0,0,-5]];perimeter=orthogonalPerimeter;outlineConnect=0;targetShapes=umlLifeline;portConstraint=eastwest;newEdgeStyle={&quot;curved&quot;:0,&quot;rounded&quot;:0};" vertex="1" parent="KvpCrbE6hY3rd7WmZzpO-15">
          <mxGeometry x="35" y="240" width="10" height="40" as="geometry" />
        </mxCell>
        <mxCell id="KvpCrbE6hY3rd7WmZzpO-27" value="" style="html=1;points=[[0,0,0,0,5],[0,1,0,0,-5],[1,0,0,0,5],[1,1,0,0,-5]];perimeter=orthogonalPerimeter;outlineConnect=0;targetShapes=umlLifeline;portConstraint=eastwest;newEdgeStyle={&quot;curved&quot;:0,&quot;rounded&quot;:0};" vertex="1" parent="KvpCrbE6hY3rd7WmZzpO-15">
          <mxGeometry x="35" y="400" width="10" height="40" as="geometry" />
        </mxCell>
        <mxCell id="KvpCrbE6hY3rd7WmZzpO-17" value="Inventory API sends Item data&lt;br&gt;to the DB" style="html=1;verticalAlign=bottom;startArrow=oval;startFill=1;endArrow=block;startSize=8;curved=0;rounded=0;" edge="1" parent="1" source="KvpCrbE6hY3rd7WmZzpO-12" target="KvpCrbE6hY3rd7WmZzpO-15">
          <mxGeometry x="0.5023" width="60" relative="1" as="geometry">
            <mxPoint x="410" y="330" as="sourcePoint" />
            <mxPoint x="470" y="330" as="targetPoint" />
            <Array as="points">
              <mxPoint x="740" y="280" />
            </Array>
            <mxPoint as="offset" />
          </mxGeometry>
        </mxCell>
        <mxCell id="KvpCrbE6hY3rd7WmZzpO-18" value="Effects API" style="shape=umlLifeline;perimeter=lifelinePerimeter;whiteSpace=wrap;html=1;container=1;dropTarget=0;collapsible=0;recursiveResize=0;outlineConnect=0;portConstraint=eastwest;newEdgeStyle={&quot;curved&quot;:0,&quot;rounded&quot;:0};size=80;" vertex="1" parent="1">
          <mxGeometry x="800" y="40" width="80" height="560" as="geometry" />
        </mxCell>
        <mxCell id="KvpCrbE6hY3rd7WmZzpO-25" value="" style="html=1;points=[[0,0,0,0,5],[0,1,0,0,-5],[1,0,0,0,5],[1,1,0,0,-5]];perimeter=orthogonalPerimeter;outlineConnect=0;targetShapes=umlLifeline;portConstraint=eastwest;newEdgeStyle={&quot;curved&quot;:0,&quot;rounded&quot;:0};" vertex="1" parent="KvpCrbE6hY3rd7WmZzpO-18">
          <mxGeometry x="35" y="360" width="10" height="120" as="geometry" />
        </mxCell>
        <mxCell id="KvpCrbE6hY3rd7WmZzpO-21" value="DB returns an OK response to the&lt;br&gt;Inventory API" style="html=1;verticalAlign=bottom;endArrow=open;dashed=1;endSize=8;curved=0;rounded=0;" edge="1" parent="1" source="KvpCrbE6hY3rd7WmZzpO-15" target="KvpCrbE6hY3rd7WmZzpO-12">
          <mxGeometry x="0.4981" relative="1" as="geometry">
            <mxPoint x="990" y="320" as="sourcePoint" />
            <mxPoint x="910" y="320" as="targetPoint" />
            <Array as="points">
              <mxPoint x="840" y="320" />
            </Array>
            <mxPoint as="offset" />
          </mxGeometry>
        </mxCell>
        <mxCell id="KvpCrbE6hY3rd7WmZzpO-23" value="Inventory API returns an OK response&lt;br&gt;to the Engine API" style="html=1;verticalAlign=bottom;endArrow=open;dashed=1;endSize=8;curved=0;rounded=0;" edge="1" parent="1" source="KvpCrbE6hY3rd7WmZzpO-12" target="KvpCrbE6hY3rd7WmZzpO-8">
          <mxGeometry relative="1" as="geometry">
            <mxPoint x="650" y="280" as="sourcePoint" />
            <mxPoint x="570" y="280" as="targetPoint" />
            <Array as="points">
              <mxPoint x="540" y="360" />
            </Array>
          </mxGeometry>
        </mxCell>
        <mxCell id="KvpCrbE6hY3rd7WmZzpO-24" value="Engine API sends a request to the&lt;br&gt;Effects API with the Character&#39;s UUID&lt;br&gt;and info on the item" style="html=1;verticalAlign=bottom;startArrow=oval;startFill=1;endArrow=block;startSize=8;curved=0;rounded=0;" edge="1" parent="1" source="KvpCrbE6hY3rd7WmZzpO-8" target="KvpCrbE6hY3rd7WmZzpO-18">
          <mxGeometry x="0.5023" width="60" relative="1" as="geometry">
            <mxPoint x="580" y="330" as="sourcePoint" />
            <mxPoint x="640" y="330" as="targetPoint" />
            <Array as="points">
              <mxPoint x="640" y="400" />
            </Array>
            <mxPoint as="offset" />
          </mxGeometry>
        </mxCell>
        <mxCell id="KvpCrbE6hY3rd7WmZzpO-26" value="Effects API sends Item data to the DB" style="html=1;verticalAlign=bottom;startArrow=oval;startFill=1;endArrow=block;startSize=8;curved=0;rounded=0;" edge="1" parent="1" source="KvpCrbE6hY3rd7WmZzpO-18" target="KvpCrbE6hY3rd7WmZzpO-15">
          <mxGeometry width="60" relative="1" as="geometry">
            <mxPoint x="890" y="479.16999999999996" as="sourcePoint" />
            <mxPoint x="950" y="479.16999999999996" as="targetPoint" />
            <Array as="points">
              <mxPoint x="940" y="440" />
            </Array>
          </mxGeometry>
        </mxCell>
        <mxCell id="KvpCrbE6hY3rd7WmZzpO-28" value="DB returns an OK response to the&lt;br&gt;Effects API" style="html=1;verticalAlign=bottom;endArrow=open;dashed=1;endSize=8;curved=0;rounded=0;" edge="1" parent="1" source="KvpCrbE6hY3rd7WmZzpO-15" target="KvpCrbE6hY3rd7WmZzpO-18">
          <mxGeometry relative="1" as="geometry">
            <mxPoint x="650" y="390" as="sourcePoint" />
            <mxPoint x="570" y="390" as="targetPoint" />
            <Array as="points">
              <mxPoint x="940" y="480" />
            </Array>
          </mxGeometry>
        </mxCell>
        <mxCell id="KvpCrbE6hY3rd7WmZzpO-29" value="Effects API returns an OK response to&lt;br&gt;the Engine API" style="html=1;verticalAlign=bottom;endArrow=open;dashed=1;endSize=8;curved=0;rounded=0;" edge="1" parent="1" source="KvpCrbE6hY3rd7WmZzpO-18" target="KvpCrbE6hY3rd7WmZzpO-8">
          <mxGeometry x="0.4981" relative="1" as="geometry">
            <mxPoint x="650" y="390" as="sourcePoint" />
            <mxPoint x="570" y="390" as="targetPoint" />
            <Array as="points">
              <mxPoint x="640" y="520" />
            </Array>
            <mxPoint as="offset" />
          </mxGeometry>
        </mxCell>
        <mxCell id="KvpCrbE6hY3rd7WmZzpO-30" value="Engine API returns an OK response&lt;br&gt;to the UI" style="html=1;verticalAlign=bottom;endArrow=open;dashed=1;endSize=8;curved=0;rounded=0;" edge="1" parent="1" source="KvpCrbE6hY3rd7WmZzpO-8" target="KvpCrbE6hY3rd7WmZzpO-5">
          <mxGeometry relative="1" as="geometry">
            <mxPoint x="650" y="390" as="sourcePoint" />
            <mxPoint x="570" y="390" as="targetPoint" />
            <Array as="points">
              <mxPoint x="340" y="560" />
            </Array>
          </mxGeometry>
        </mxCell>
        <mxCell id="KvpCrbE6hY3rd7WmZzpO-31" value="UI briefly displays an icon&lt;br&gt;indicating that data was&lt;br&gt;saved successfully" style="html=1;verticalAlign=bottom;endArrow=open;dashed=1;endSize=8;curved=0;rounded=0;" edge="1" parent="1" source="KvpCrbE6hY3rd7WmZzpO-5" target="KvpCrbE6hY3rd7WmZzpO-4">
          <mxGeometry relative="1" as="geometry">
            <mxPoint x="650" y="390" as="sourcePoint" />
            <mxPoint x="570" y="390" as="targetPoint" />
            <Array as="points">
              <mxPoint x="170" y="600" />
            </Array>
          </mxGeometry>
        </mxCell>
      </root>
    </mxGraphModel>
  </diagram>
</mxfile>
